# xmcd
#
# Track frame offsets:
#	150
#	13230
#	27840
#	40377
#	48395
#	62940
#	75820
#	87912
#	99747
#	110382
#	122127
#	135290
#	149057
#	159367
#	170782
#	185382
#	194815
#	206062
#	218355
#	230975
#
# Disc length: 3201 seconds
#
# Revision: 0
# Processed by: cddbd v1.4PL0 Copyright (c) Steve Scherf et al.
# Submitted via: dBpowerAMP V4.0
#
DISCID=220c7f14
DTITLE=Merle Haggard - 20 Country Classics
DYEAR=1900
DGENRE=
TTITLE0=I can't stop lovin you
TTITLE1=Trouble in mind
TTITLE2=Folsom prison blues
TTITLE3=Walking the floor over you
TTITLE4=Long black limousine
TTITLE5=Waiting for a train
TTITLE6=San Antonio rose
TTITLE7=Little ole wine drinker me
TTITLE8=Today I started loving you again
TTITLE9=She thinks I still care
TTITLE10=Mom and dads waltz
TTITLE11=Making believe
TTITLE12=Blues stay away from me
TTITLE13=You've still got a place in my heart
TTITLE14=Green grass of home
TTITLE15=Moanin' the blues
TTITLE16=(My friends are gonna be) strangers
TTITLE17=Silver wings
TTITLE18=I take a lot of pride in what I am
TTITLE19=Where does the good times go
EXTD=\n
EXTT0=
EXTT1=
EXTT2=
EXTT3=
EXTT4=
EXTT5=
EXTT6=
EXTT7=
EXTT8=
EXTT9=
EXTT10=
EXTT11=
EXTT12=
EXTT13=
EXTT14=
EXTT15=
EXTT16=
EXTT17=
EXTT18=
EXTT19=
PLAYORDER=
